<svg xmlns="http://www.w3.org/2000/svg" width="12" height="12" viewBox="0 0 12 12">
    <g fill="none" fill-rule="evenodd">
        <rect width="12" height="12" fill="#E3E5E8" rx="6"/>
        <path fill="#FFF" d="M7.783 3.623c.164-.164.43-.164.594 0 .164.164.164.43 0 .594L6.594 6l1.783 1.783c.164.164.164.43 0 .594-.164.164-.43.164-.594 0L6 6.594 4.217 8.377c-.143.144-.365.161-.528.054l-.066-.054c-.164-.164-.164-.43 0-.594L5.406 6 3.623 4.217c-.164-.164-.164-.43 0-.594.164-.164.43-.164.594 0L6 5.406z"/>
    </g>
</svg>
