<svg xmlns="http://www.w3.org/2000/svg" xmlns:xlink="http://www.w3.org/1999/xlink" width="23" height="22" viewBox="0 0 23 22">
    <defs>
        <path id="prefix__a" d="M9.31 0c4.234 0 7.666 3.283 7.666 7.333v2.339c0 2.376 1.218 3.17 1.478 4.078.135.468.187 1.123.157 1.964h-6.564v.524c0 1.39-1.133 2.529-2.564 2.614l-.173.005c-1.513 0-2.739-1.172-2.739-2.619v-.524H.008c-.03-.84.022-1.496.157-1.964.26-.908 1.478-1.702 1.478-4.078V8.476 7.333C1.643 3.283 5.075 0 9.31 0zm1.642 15.714H7.667v.524c0 .868.735 1.572 1.643 1.572.907 0 1.642-.704 1.642-1.572v-.524zM9.31 1.048c-3.63 0-6.572 2.814-6.572 6.285v2.34c0 1.336-.311 2.326-.908 3.32-.09.151-.39.617-.388.615l.008-.013c-.108.17-.168.278-.205.364-.01.026-.019.048-.024.068-.048.167-.083.38-.104.64h16.385c-.02-.26-.056-.473-.104-.64-.005-.02-.013-.042-.024-.068-.03-.069-.074-.152-.146-.27l-.059-.094c.065.102-.281-.437-.38-.601-.597-.995-.909-1.985-.909-3.322l.001-2.339c0-3.471-2.942-6.285-6.571-6.285z"/>
    </defs>
    <g fill="none" fill-rule="evenodd" transform="translate(2.19 2.095)">
        <mask id="prefix__b" fill="#fff">
            <use xlink:href="#prefix__a"/>
        </mask>
        <use fill="#16181A" fill-rule="nonzero" xlink:href="#prefix__a"/>
        <g fill="#16181A" mask="url(#prefix__b)">
            <path d="M0 0H23V22H0z" transform="translate(-2 -2)"/>
        </g>
    </g>
</svg>
