<svg xmlns="http://www.w3.org/2000/svg" xmlns:xlink="http://www.w3.org/1999/xlink" width="21" height="21" viewBox="0 0 21 21">
    <defs>
        <path id="prefix__a" d="M7 0c3.866 0 7 3.134 7 7 0 1.515-.481 2.918-1.3 4.063l4.51 4.512-1.06 1.06-4.449-4.448C10.46 13.313 8.81 14 7 14c-3.866 0-7-3.134-7-7s3.134-7 7-7zm0 1.5C3.962 1.5 1.5 3.962 1.5 7s2.462 5.5 5.5 5.5 5.5-2.462 5.5-5.5S10.038 1.5 7 1.5z"/>
    </defs>
    <g fill="none" fill-rule="evenodd" transform="translate(2 2)">
        <mask id="prefix__b" fill="#fff">
            <use xlink:href="#prefix__a"/>
        </mask>
        <use fill="#16181A" fill-rule="nonzero" xlink:href="#prefix__a"/>
        <g fill="#16181A" mask="url(#prefix__b)">
            <path d="M0 0H21V21H0z" transform="translate(-2 -2)"/>
        </g>
    </g>
</svg>
