<svg xmlns="http://www.w3.org/2000/svg" width="140" height="70" viewBox="0 0 140 70">
    <g fill="none" fill-rule="evenodd">
        <path fill="#16181A" d="M37.207 1.411c.313 0 .579.221.66.515l4.473 17.033c.014.055.02.11.02.169 0 .382-.308.694-.682.694h-4.195c-.313 0-.58-.218-.658-.512l-1.492-5.847c-.033-.126-.204-.162-.28-.054l-4.085 5.825c-.111.16-.267.25-.43.25-.163 0-.32-.09-.43-.25l-4.085-5.825c-.074-.108-.248-.072-.279.054l-1.492 5.847c-.08.294-.346.512-.659.512H19.4c-.375 0-.683-.312-.683-.694 0-.059.007-.114.021-.169L23.21 1.926c.08-.294.345-.515.657-.515.228 0 .43.115.553.29V1.7l5.857 8.096c.075.105.165.166.261.166.095 0 .188-.06.26-.166L36.657 1.7c.125-.174.325-.289.55-.289zm-17.653 0c.378 0 .683.313.683.698v4.325c0 .382-.305.699-.683.699h-5.297c-.373 0-.676.313-.676.69v11.304c0 .382-.31.695-.684.695H8.45c-.373 0-.683-.313-.683-.695V7.823c0-.377-.302-.69-.675-.69H2.007c-.37 0-.68-.317-.68-.699V4.833c0-.99-.267-1.52-.723-1.836C.094 2.642-.05 2.27.015 1.97c.088-.369.338-.56.799-.56zm49.516 0c.442 0 .847.212 1.108.543l6.618 8.499c.164.212.425.136.425-.153V2.11c0-.386.306-.698.68-.698h4.224c.376 0 .68.312.68.697v14.293c0 .989.267 1.52.724 1.836.51.354.655.725.588 1.026-.087.367-.338.558-.8.558H77.9c-.483 0-.82-.182-1.109-.538l-6.604-8.508c-.19-.24-.427-.126-.427.156v8.195c0 .382-.308.695-.686.695h-4.236c-.373 0-.68-.313-.68-.695V2.11c0-.385.307-.697.68-.697zm-16.74 6.58c1.419 0 2.57 1.176 2.57 2.625 0 1.45-1.151 2.626-2.57 2.626-1.416 0-2.567-1.177-2.567-2.626 0-1.45 1.15-2.625 2.566-2.625z" transform="translate(0 25)"/>
        <path fill="#F27935" d="M52.33 0c-5.736 0-10.377 4.755-10.377 10.616 0 5.863 4.64 10.62 10.377 10.62 5.74 0 10.391-4.757 10.391-10.62C62.721 4.755 58.07 0 52.331 0m.004 15.596c-2.685 0-4.87-2.232-4.87-4.982 0-2.747 2.185-4.976 4.87-4.976 2.695 0 4.874 2.229 4.874 4.976 0 2.75-2.179 4.982-4.874 4.982" transform="translate(0 25)"/>
        <path fill="#16181A" fill-rule="nonzero" d="M99.018 19.3h-4.279V.816h4.279V19.3zm12.854-3.593h-5.497l-1.067 3.593h-4.52L106.82.816h2.298v.012l.013-.012h2.297L117.47 19.3h-4.52l-1.078-3.593zm-4.507-3.3h3.517l-1.727-5.739h-.076l-1.714 5.738zm20.928 1.345h.077L132.546.816h5.675V19.3h-4.29V7.392l-.077-.013-4.075 11.921h-2.882l-3.999-11.743-.076.013V19.3h-4.291V.816h5.624l4.138 12.936z" transform="translate(0 25)"/>
    </g>
</svg>
